<svg width="96" height="96" viewBox="0 0 96 96" fill="none" xmlns="http://www.w3.org/2000/svg">
  <rect x="8" y="8" width="80" height="80" rx="22" fill="url(#paint0_linear)"/>
  <path d="M29 47.5C29 38.9396 35.9396 32 44.5 32H51.5C60.0604 32 67 38.9396 67 47.5V64H58V47.5C58 43.9101 55.0899 41 51.5 41H44.5C40.9101 41 38 43.9101 38 47.5V64H29V47.5Z" fill="white"/>
  <path d="M48 26C52.4183 26 56 22.4183 56 18C56 13.5817 52.4183 10 48 10C43.5817 10 40 13.5817 40 18C40 22.4183 43.5817 26 48 26Z" fill="#dbeafe"/>
  <path d="M23 63H73" stroke="white" stroke-width="7" stroke-linecap="round"/>
  <defs>
    <linearGradient id="paint0_linear" x1="16" y1="14" x2="82" y2="84" gradientUnits="userSpaceOnUse">
      <stop stop-color="#2563eb"/>
      <stop offset="1" stop-color="#1e3a8a"/>
    </linearGradient>
  </defs>
</svg>
